<?xml version="1.0" standalone="no"?><!DOCTYPE svg PUBLIC "-//W3C//DTD SVG 1.1//EN" "http://www.w3.org/Graphics/SVG/1.1/DTD/svg11.dtd"><svg class="icon" width="64px" height="64.00px" viewBox="0 0 1024 1024" version="1.1" xmlns="http://www.w3.org/2000/svg"><path fill="#36648b" d="M512 145.868c-202.208 0-366.132 163.925-366.132 366.132 0 202.211 163.924 366.132 366.132 366.132 202.21 0 366.132-163.921 366.132-366.132C878.132 309.793 714.21 145.868 512 145.868L512 145.868zM509.661 726.363c-21.25 0-38.474-16.897-38.474-37.743s17.224-37.742 38.474-37.742c21.249 0 38.478 16.896 38.478 37.742S530.91 726.363 509.661 726.363L509.661 726.363zM654.778 468.666c-10.564 16.64-33.073 39.345-67.565 68.033-17.868 14.847-28.933 26.79-33.245 35.844-4.317 9.019-6.284 25.207-5.877 48.464l-76.903 0c-0.208-11.025-0.309-17.768-0.309-20.162 0-24.903 4.122-45.361 12.36-61.415 8.238-16.053 24.715-34.153 49.426-54.204 24.688-20.078 39.494-33.225 44.307-39.452 7.423-9.85 11.16-20.682 11.16-32.529 0-16.413-6.627-30.496-19.79-42.212-13.168-11.713-30.939-17.588-53.284-17.588-21.525 0-39.529 6.124-54.032 18.319-14.481 12.2-26.904 39.139-29.867 55.818-2.79 15.727-78.614 22.35-77.703-9.514 0.911-31.866 17.523-66.467 45.965-91.578 28.444-25.086 65.779-37.642 111.992-37.642 48.627 0 87.321 12.703 116.045 38.105 28.749 25.404 43.088 54.979 43.088 88.705C670.545 434.333 665.296 452.001 654.778 468.666L654.778 468.666z" /></svg>